<svg width="10" height="12" viewBox="0 0 10 12" fill="none" xmlns="http://www.w3.org/2000/svg">
<path fill-rule="evenodd" clip-rule="evenodd" d="M1.08001 0.663086V0.673086C0.649007 0.673086 0.300007 1.02309 0.300007 1.45309C0.300007 1.88309 0.649007 2.23309 1.08001 2.23309H4.06901C4.50001 2.23309 4.85001 1.88309 4.85001 1.44209C4.85001 1.01309 4.50001 0.663086 4.06901 0.663086H1.08001ZM8.92001 6.75309H1.08001C0.649007 6.75309 0.300007 6.40309 0.300007 5.97309C0.300007 5.54309 0.649007 5.19209 1.08001 5.19209H8.92001C9.35001 5.19209 9.70001 5.54309 9.70001 5.97309C9.70001 6.40309 9.35001 6.75309 8.92001 6.75309ZM8.92001 11.3231H1.08001C0.780007 11.3631 0.490007 11.2131 0.330007 10.9631C0.170007 10.7031 0.170007 10.3731 0.330007 10.1231C0.490007 9.86309 0.780007 9.72309 1.08001 9.75309H8.92001C9.31901 9.79309 9.62001 10.1331 9.62001 10.5431C9.62001 10.9421 9.31901 11.2831 8.92001 11.3231Z" fill="#8A92A6"/>
</svg>
