<svg width="10" height="12" viewBox="0 0 10 12" fill="none" xmlns="http://www.w3.org/2000/svg">
<path fill-rule="evenodd" clip-rule="evenodd" d="M1.07999 0.663086V0.673086C0.648991 0.673086 0.299991 1.02309 0.299991 1.45309C0.299991 1.88309 0.648991 2.23309 1.07999 2.23309H4.06899C4.49999 2.23309 4.84999 1.88309 4.84999 1.44209C4.84999 1.01309 4.49999 0.663086 4.06899 0.663086H1.07999ZM8.91999 6.75309H1.07999C0.648991 6.75309 0.299991 6.40309 0.299991 5.97309C0.299991 5.54309 0.648991 5.19209 1.07999 5.19209H8.91999C9.34999 5.19209 9.69999 5.54309 9.69999 5.97309C9.69999 6.40309 9.34999 6.75309 8.91999 6.75309ZM8.91999 11.3231H1.07999C0.779991 11.3631 0.489991 11.2131 0.329991 10.9631C0.169991 10.7031 0.169991 10.3731 0.329991 10.1231C0.489991 9.86309 0.779991 9.72309 1.07999 9.75309H8.91999C9.31899 9.79309 9.61999 10.1331 9.61999 10.5431C9.61999 10.9421 9.31899 11.2831 8.91999 11.3231Z" fill="#8A92A6"/>
</svg>
