<svg width="20" height="19" viewBox="0 0 20 19" fill="none" xmlns="http://www.w3.org/2000/svg">
<path fill-rule="evenodd" clip-rule="evenodd" d="M19.9964 5.38831H15.7618C13.7911 5.39178 12.1947 6.94833 12.1911 8.86975C12.1884 10.7955 13.7867 12.359 15.7618 12.3616H20V12.6675C20 16.0268 17.9636 18.0132 14.5173 18.0132H5.48356C2.03644 18.0132 0 16.0268 0 12.6675V5.35104C0 1.99181 2.03644 0.0131836 5.48356 0.0131836H14.5138C17.96 0.0131836 19.9964 1.99181 19.9964 5.35104V5.38831ZM4.73956 5.38051H10.3796H10.3831H10.3902C10.8124 5.37878 11.1538 5.04337 11.152 4.63084C11.1502 4.21916 10.8053 3.88636 10.3831 3.88809H4.73956C4.32 3.88983 3.97956 4.22176 3.97778 4.6317C3.976 5.04337 4.31733 5.37878 4.73956 5.38051Z" fill="#8A92A6"/>
</svg>
