<svg width="24" height="25" viewBox="0 0 24 25" fill="none" xmlns="http://www.w3.org/2000/svg">
<path opacity="0.4" d="M12.0865 22.0132C11.9627 22.0132 11.8389 21.9847 11.7271 21.9269L8.12602 20.0628C7.10419 19.5333 6.30484 18.939 5.68066 18.2467C4.31452 16.7327 3.55443 14.7892 3.54235 12.7731L3.50007 6.13745C3.49503 5.37161 3.98934 4.68421 4.72829 4.42534L11.3405 2.11997C11.7332 1.97975 12.1711 1.97779 12.5708 2.11311L19.2082 4.34003C19.9511 4.58811 20.4535 5.2706 20.4575 6.03546L20.4998 12.676C20.5129 14.6892 19.779 16.6405 18.434 18.1712C17.8169 18.8733 17.0246 19.4764 16.0128 20.0157L12.4439 21.922C12.3332 21.9818 12.2104 22.0122 12.0865 22.0132Z" fill="#8A92A6"/>
<path d="M11.3192 14.3341C11.1259 14.3351 10.9326 14.2655 10.7836 14.1223L8.86677 12.2788C8.57079 11.9924 8.56777 11.5277 8.86073 11.2394C9.15369 10.9501 9.63189 10.9471 9.92888 11.2325L11.3081 12.5582L14.6756 9.23798C14.9696 8.9487 15.4478 8.94576 15.7438 9.23111C16.0408 9.51744 16.0438 9.98322 15.7508 10.2705L11.8517 14.1154C11.7048 14.2606 11.5125 14.3331 11.3192 14.3341Z" fill="#8A92A6"/>
</svg>
