<svg width="24" height="25" viewBox="0 0 24 25" fill="none" xmlns="http://www.w3.org/2000/svg">
<path opacity="0.4" d="M21.9999 16.44C21.9999 19.23 19.7599 21.49 16.9699 21.5H16.9599H7.04988C4.26988 21.5 1.99988 19.25 1.99988 16.46V16.45C1.99988 16.45 2.00588 12.024 2.01388 9.798C2.01488 9.38 2.49488 9.146 2.82188 9.406C5.19788 11.291 9.44688 14.728 9.49988 14.773C10.2099 15.342 11.1099 15.663 12.0299 15.663C12.9499 15.663 13.8499 15.342 14.5599 14.762C14.6129 14.727 18.7669 11.393 21.1789 9.477C21.5069 9.216 21.9889 9.45 21.9899 9.867C21.9999 12.076 21.9999 16.44 21.9999 16.44Z" fill="#8A92A6"/>
<path d="M21.476 6.17351C20.61 4.54151 18.906 3.49951 17.03 3.49951H7.05001C5.17401 3.49951 3.47001 4.54151 2.60401 6.17351C2.41001 6.53851 2.50201 6.99351 2.82501 7.25151L10.25 13.1905C10.77 13.6105 11.4 13.8195 12.03 13.8195C12.034 13.8195 12.037 13.8195 12.04 13.8195C12.043 13.8195 12.047 13.8195 12.05 13.8195C12.68 13.8195 13.31 13.6105 13.83 13.1905L21.255 7.25151C21.578 6.99351 21.67 6.53851 21.476 6.17351Z" fill="#8A92A6"/>
</svg>
