<svg width="24" height="25" viewBox="0 0 24 25" fill="none" xmlns="http://www.w3.org/2000/svg">
<path d="M19.7695 12.1453C19.039 11.2923 18.7071 10.5531 18.7071 9.29716V8.87013C18.7071 7.23354 18.3304 6.17907 17.5115 5.12459C16.2493 3.48699 14.1244 2.5 12.0442 2.5H11.9558C9.91935 2.5 7.86106 3.44167 6.577 5.0128C5.71333 6.08842 5.29293 7.18822 5.29293 8.87013V9.29716C5.29293 10.5531 4.98284 11.2923 4.23049 12.1453C3.67691 12.7738 3.5 13.5815 3.5 14.4557C3.5 15.3309 3.78723 16.1598 4.36367 16.8336C5.11602 17.6413 6.17846 18.1569 7.26375 18.2466C8.83505 18.4258 10.4063 18.4933 12.0005 18.4933C13.5937 18.4933 15.165 18.3805 16.7372 18.2466C17.8215 18.1569 18.884 17.6413 19.6363 16.8336C20.2118 16.1598 20.5 15.3309 20.5 14.4557C20.5 13.5815 20.3231 12.7738 19.7695 12.1453Z" fill="#8A92A6"/>
<path opacity="0.4" d="M14.0086 19.7283C13.5087 19.6215 10.4625 19.6215 9.96263 19.7283C9.53527 19.827 9.07312 20.0566 9.07312 20.5602C9.09797 21.0406 9.37923 21.4646 9.76882 21.7335L9.76783 21.7345C10.2717 22.1273 10.8631 22.377 11.4822 22.4667C11.8122 22.512 12.1481 22.51 12.49 22.4667C13.1082 22.377 13.6995 22.1273 14.2034 21.7345L14.2024 21.7335C14.592 21.4646 14.8733 21.0406 14.8981 20.5602C14.8981 20.0566 14.436 19.827 14.0086 19.7283Z" fill="#8A92A6"/>
</svg>
